# xmcd
#
# Track frame offsets: 
#        150
#        18077
#        40722
#        54107
#        86917
#        107792
#        125395
#        147567
#        163357
#        185302
#
# Disc length: 2659 seconds
#
# Revision: 0
# Processed by: cddbd v1.5.2PL0 Copyright (c) Steve Scherf et al.
# Submitted via: ExactAudioCopy v1.1
#
DISCID=810a610a
DTITLE=浅川マキ(vo) 萩原信義(g) 富倉安生(b) 白井幹夫(p) 小松崎政雄(ds) 斉藤伸雄(per) 市原宏祐(cl) 南
DTITLE=里文雄(tp) 渋谷森久, 山下洋輔(p) 大塚勝久, つのだ・ひろ(ds) 片岡輝彦(tb) 斎藤清(ts) 高中正義(b)
DTITLE=Various Artist - 裏窓 MAKI V
DYEAR=1973
DGENRE=Blues
TTITLE0=こんな風に過ぎて行くのなら
TTITLE1=裏窓
TTITLE2=あの男が死んだら When That Man is Dead and Gone
TTITLE3=セント・ジェームス病院 St.James Infirmary
TTITLE4=ロンサム・ロード Lonesome Road
TTITLE5=引越し
TTITLE6=トラブル・イン・マインド Trouble in Mind
TTITLE7=翔ばないカラス
TTITLE8=町の酒場で
TTITLE9=ケンタウロスの子守唄
EXTD=
EXTT0=
EXTT1=
EXTT2=
EXTT3=
EXTT4=
EXTT5=
EXTT6=
EXTT7=
EXTT8=
EXTT9=
PLAYORDER=
